<svg xmlns="http://www.w3.org/2000/svg" viewBox="0 0 900 1800" preserveAspectRatio="xMidYMid slice"><defs><linearGradient id="bg" x1="0" y1="0" x2="0" y2="1"><stop stop-color="#f3dfcf"/><stop offset=".42" stop-color="#e8c4a6"/><stop offset=".78" stop-color="#b8795d"/><stop offset="1" stop-color="#70453b"/></linearGradient><radialGradient id="light" cx="50%" cy="34%" r="52%"><stop stop-color="#fff8e9" stop-opacity=".92"/><stop offset=".5" stop-color="#f9d9b0" stop-opacity=".38"/><stop offset="1" stop-color="#d38b66" stop-opacity="0"/></radialGradient><linearGradient id="leaf" x1="0" y1="0" x2="1" y2="1"><stop stop-color="#a84d32"/><stop offset="1" stop-color="#71382f"/></linearGradient><filter id="blur"><feGaussianBlur stdDeviation="34"/></filter><filter id="soft"><feGaussianBlur stdDeviation="10"/></filter><filter id="shadow"><feGaussianBlur stdDeviation="22"/></filter></defs><rect width="900" height="1800" fill="url(#bg)"/><ellipse cx="450" cy="570" rx="390" ry="520" fill="url(#light)" filter="url(#blur)"/><g opacity=".2" filter="url(#soft)" fill="none" stroke="#fff7e8" stroke-width="7"><path d="M0 320Q135 270 250 350"/><path d="M900 350Q765 275 650 355"/><path d="M0 1010Q150 930 260 980"/><path d="M900 1010Q750 930 640 980"/></g><g fill="none" stroke-linecap="round"><path d="M-35 930C70 790 75 570 155 395C205 285 245 205 330 120" stroke="#60453c" stroke-width="18" opacity=".82"/><path d="M28 805C105 735 142 685 195 600M75 650C130 600 174 535 210 455M145 500C185 430 230 360 268 295" stroke="#725044" stroke-width="8" opacity=".8"/><path d="M935 960C830 800 830 620 755 425C715 315 665 220 575 130" stroke="#60453c" stroke-width="18" opacity=".82"/><path d="M880 820C802 745 765 685 712 590M825 665C770 600 726 530 695 455M755 505C710 430 670 360 635 292" stroke="#725044" stroke-width="8" opacity=".8"/></g><g fill="url(#leaf)" opacity=".94"><path d="M52 742C-2 702 0 633 63 608C101 650 96 700 52 742Z"/><path d="M113 624C57 598 56 530 118 502C154 547 151 587 113 624Z"/><path d="M172 505C116 472 125 406 190 389C216 442 208 475 172 505Z"/><path d="M219 395C178 352 195 300 252 288C268 338 256 371 219 395Z"/><path d="M72 845C17 825 0 770 38 728C91 755 103 801 72 845Z" fill="#c66b3e"/><path d="M252 280C221 231 245 187 299 185C306 235 292 263 252 280Z" fill="#c26a3c"/><path d="M848 760C904 720 900 651 838 620C801 666 806 715 848 760Z"/><path d="M789 632C846 603 843 536 781 505C747 550 750 593 789 632Z"/><path d="M730 512C785 475 775 410 712 390C688 442 695 478 730 512Z"/><path d="M681 402C722 359 704 306 647 289C632 338 643 372 681 402Z"/><path d="M827 860C884 838 899 780 861 735C809 760 798 814 827 860Z" fill="#c66b3e"/><path d="M648 280C679 230 655 186 601 183C595 234 608 263 648 280Z" fill="#c26a3c"/></g><g fill="#9c563d" opacity=".25"><path d="M85 250q55-45 96 0-44 30-96 0Z"/><path d="M815 245q-55-45-96 0 44 30 96 0Z"/><path d="M45 1030q50-42 92 0-43 28-92 0Z"/><path d="M855 1030q-50-42-92 0 43 28 92 0Z"/></g><ellipse cx="450" cy="1710" rx="510" ry="210" fill="#3e2927" opacity=".26" filter="url(#shadow)"/><path d="M0 1580Q180 1500 330 1575Q450 1640 570 1575Q720 1500 900 1580V1800H0Z" fill="#5a3933" opacity=".18"/><g fill="#a95735" opacity=".58"><path d="M178 1040q30-36 62 0-25 21-62 0Z"><animateTransform attributeName="transform" type="translate" values="0 0;20 80;-8 160" dur="9s" repeatCount="indefinite"/></path><path d="M710 1080q28-34 57 0-23 20-57 0Z"><animateTransform attributeName="transform" type="translate" values="0 0;-18 90;8 175" dur="10s" repeatCount="indefinite"/></path></g><rect width="900" height="1800" fill="#fff7e8" opacity=".035"/></svg>